PathFileType	4	(X/Y/Z)	/Users/niels/Desktop/University/Third Semester/Perception and Action/Exam/Gymnastics Motion Tracking/Code for Gym Tracking/Analyzed Data/Webcam_Backflip/id2007_1_baseline_Sports2D/id2007_1_baseline_Sports2D_px_person00.trc
DataRate	CameraRate	NumFrames	NumMarkers	Units	OrigDataRate	OrigDataStartFrame	OrigNumFrames
29.776119402985074	29.776119402985074	15	22	m	29.776119402985074	117	134
Frame#	Time	Hip			RHip			RKnee			RAnkle			RBigToe			RSmallToe			RHeel			LHip			LKnee			LAnkle			LBigToe			LSmallToe			LHeel			Neck			Head			Nose			RShoulder			RElbow			RWrist			LShoulder			LElbow			LWrist		
		X1	Y1	Z1	X2	Y2	Z2	X3	Y3	Z3	X4	Y4	Z4	X5	Y5	Z5	X6	Y6	Z6	X7	Y7	Z7	X8	Y8	Z8	X9	Y9	Z9	X10	Y10	Z10	X11	Y11	Z11	X12	Y12	Z12	X13	Y13	Z13	X14	Y14	Z14	X15	Y15	Z15	X16	Y16	Z16	X17	Y17	Z17	X18	Y18	Z18	X19	Y19	Z19	X20	Y20	Z20	X21	Y21	Z21	X22	Y22	Z22
117	3.929323308270677	0.8633836403557158	-0.7278155796499866	0.0	0.8417592974810962	-0.7321412903250637	0.0	0.8654344117549	-1.0557171096676068	0.0	1.034385927458823	-1.0868665611556927	0.0			0.0	1.625089599609375	-0.343052490234375	0.0			0.0	0.8936672084373536	-0.7443237681369345	0.0	0.9272660288819251	-1.0535983613618194	0.0	1.038264263073842	-1.0797891447423007	0.0			0.0			0.0			0.0	1.0280200341760142	-0.2922884558027477	0.0	1.151006780335806	-0.125460227618478	0.0	1.1244505818523367	-0.22903730686118715	0.0	0.9707131853607858	-0.33056285928868284	0.0	0.9562343756695314	-0.5918232330848882	0.0	1.0063126538879956	-0.8403185020614692	0.0	1.0341748598644673	-0.3603241871081995	0.0	1.016621164106259	-0.6019848893511399	0.0	1.061135489896256	-0.8004251324736728	0.0
118	3.9629072681704263	0.8669964858218747	-0.727477416184703	0.0	0.8473743392624193	-0.7314899764812688	0.0	0.8698033181657547	-1.0555691308919772	0.0	1.0344023429638063	-1.0868678579832656	0.0			0.0	1.625089599609375	-0.343052490234375	0.0			0.0	0.8951955820335239	-0.7422132120226411	0.0	0.9270892556967709	-1.0548580574737145	0.0	1.0382847073900574	-1.07978904745368	0.0			0.0			0.0			0.0	1.020752432720281	-0.2887982212773803	0.0	1.1380891190010116	-0.11909830275370066	0.0	1.116412580117475	-0.22313490674510564	0.0	0.9663018225884148	-0.32833892309553303	0.0	0.9685274650477861	-0.5882007129105327	0.0	1.0440143961993447	-0.8311685319161471	0.0	1.0262149503350042	-0.35584739887000827	0.0	1.017609519204885	-0.5996713747528064	0.0	1.0831901648008835	-0.794483908993208	0.0
119	3.996491228070176	0.8727613201432516	-0.7274317754097752	0.0	0.8540325677422789	-0.7310224687479824	0.0	0.8754364633666185	-1.0554639053475348	0.0	1.0343967540920387	-1.0868762830899998	0.0			0.0	1.625089599609375	-0.343052490234375	0.0			0.0	0.9003143623389717	-0.7407875348034446	0.0	0.9274543521240473	-1.0561999814641707	0.0	1.0382795952544426	-1.079788913711277	0.0			0.0			0.0			0.0	1.0126013258878095	-0.2849556879228886	0.0	1.1217673774705352	-0.11164391209829823	0.0	1.1061737562245775	-0.2161221795304633	0.0	0.9603508213117865	-0.3261793434873092	0.0	0.9850162573545471	-0.580659697801494	0.0	1.0897794288504896	-0.812540037425352	0.0	1.0185899038932344	-0.3516096691840546	0.0	1.020487780480837	-0.595189023515104	0.0	1.1076933748279916	-0.7811285742461549	0.0
120	4.030075187969925	0.8808628181763232	-0.7278997430207744	0.0	0.8619145663252723	-0.7311642944743767	0.0	0.8827691506857753	-1.0558624199199675	0.0	1.0343424428218413	-1.0868962719746427	0.0			0.0	1.625089599609375	-0.343052490234375	0.0			0.0	0.9088224144737966	-0.7402135469245923	0.0	0.929023845764347	-1.0577513370775344	0.0	1.0382172246759223	-1.0797886671242942	0.0			0.0			0.0			0.0	1.0035323869090431	-0.28076707879780677	0.0	1.1017074924076096	-0.10339715115015938	0.0	1.0932418707629574	-0.20777043651697685	0.0	0.9529641639509295	-0.3242931878810609	0.0	1.005397281376382	-0.5680153045484487	0.0	1.141078125436317	-0.7822098457981338	0.0	1.011492071484512	-0.3473414941014813	0.0	1.0263637680971713	-0.5872782815835116	0.0	1.1334388095314722	-0.7572431738965204	0.0
121	4.063659147869674	0.8909409277414722	-0.728902932667261	0.0	0.8712826126452861	-0.7320935093598214	0.0	0.8919264027536736	-1.0569568926991808	0.0	1.034206218647678	-1.0869310571842459	0.0			0.0	1.625089599609375	-0.343052490234375	0.0			0.0	0.9196947604870118	-0.7403382640635613	0.0	0.9320198432067492	-1.0594382524159962	0.0	1.038058123611734	-1.079788202907311	0.0			0.0			0.0			0.0	0.9934103215604952	-0.27615126438580895	0.0	1.0778853366528651	-0.09490861674452984	0.0	1.0774078394819582	-0.19815589032676703	0.0	0.94451571878841	-0.3226965634211042	0.0	1.0287408188142753	-0.549182757777394	0.0	1.194245790182412	-0.738531442967591	0.0	1.0040879882862142	-0.3424834902748268	0.0	1.0353647427811463	-0.5741395432156821	0.0	1.158288922789816	-0.7205527854027874	0.0
122	4.097243107769424	0.9024228143963435	-0.7300290855050169	0.0	0.8823380137905351	-0.7334382867268899	0.0	0.9027809918326166	-1.058454749565006	0.0	1.0339609239523528	-1.0869788579377302	0.0			0.0	1.625089599609375	-0.343052490234375	0.0			0.0	0.9315768094366997	-0.7406299110228564	0.0	0.9366854714360425	-1.0608158528414724	0.0	1.0377695306322348	-1.079787440609598	0.0			0.0			0.0			0.0	0.9821631824240253	-0.2711705803178584	0.0	1.0506801226751763	-0.08690999074537459	0.0	1.0588936251204304	-0.18788277433380077	0.0	0.9355117825711695	-0.3210681068266319	0.0	1.0534092688835697	-0.5235560050912491	0.0	1.2451277933007747	-0.681118318695458	0.0	0.9955588353499172	-0.3366636662999638	0.0	1.0471416896629175	-0.5540617131522337	0.0	1.1804812901362347	-0.6711228656491234	0.0
123	4.130827067669173	0.9148367212785349	-0.7304599994465176	0.0	0.8950728568372283	-0.7342836694742518	0.0	0.915217561802267	-1.059616391682639	0.0	1.0336118538902233	-1.0870269022932362	0.0			0.0	1.625089599609375	-0.343052490234375	0.0			0.0	0.9433639382457196	-0.7402482638205882	0.0	0.9432710913778096	-1.0610687816195357	0.0	1.03735634362447	-1.079786413080689	0.0			0.0			0.0			0.0	0.9698404745281088	-0.2662617615108133	0.0	1.0208982383950242	-0.08008390580743605	0.0	1.0382709937778216	-0.17790816895432776	0.0	0.926432443879209	-0.31890700283055584	0.0	1.0769991707172135	-0.491433156170402	0.0	1.2892079025659722	-0.6111584220229987	0.0	0.9853007776526275	-0.3301111545529162	0.0	1.0611903283598803	-0.5263466520880234	0.0	1.1995180127968499	-0.6114473689832676	0.0
124	4.164411027568923	0.9277812396702922	-0.7293273948329784	0.0	0.9092930905067933	-0.733490406670321	0.0	0.9293126580188055	-1.059565680637556	0.0	1.033239550652074	-1.0870441230631316	0.0			0.0	1.625089599609375	-0.343052490234375	0.0			0.0	0.9543633988302315	-0.7383239851800969	0.0	0.9518070921793793	-1.0593154445478299	0.0	1.0369115853561641	-1.0797853980156653	0.0			0.0			0.0			0.0	0.9565500484977192	-0.26208279461067613	0.0	0.9896970396471011	-0.07484372545427412	0.0	1.0163001130401166	-0.16905622457081954	0.0	0.9176958921454453	-0.3158205387363718	0.0	1.0968771759401748	-0.4542695593340478	0.0	1.3221257340404495	-0.5315861572657153	0.0	0.9724329092513135	-0.32362364956815537	0.0	1.076244248190617	-0.4923046438061535	0.0	1.2157908259815449	-0.545204384041923	0.0
125	4.197994987468672	0.9407066556026594	-0.7260882061595135	0.0	0.9247151680929123	-0.730094832710055	0.0	0.9452045928183118	-1.0577462283957695	0.0	1.033054264547846	-1.0869754240795337	0.0			0.0	1.625089599609375	-0.343052490234375	0.0			0.0	0.9639096320189819	-0.7342521918984903	0.0	0.9621420457377223	-1.0550820267915424	0.0	1.0366810719287902	-1.0797850746867355	0.0			0.0			0.0			0.0	0.9424760931026355	-0.2590471509557307	0.0	0.9583391532675729	-0.07125162473342193	0.0	0.9938360081137815	-0.16165947766045355	0.0	0.9097372651475303	-0.31162598564056493	0.0	1.1111854337417446	-0.41444014790969225	0.0	1.3410094972269748	-0.44707229836789136	0.0	0.9559906941403064	-0.31810173011072546	0.0	1.0899654450853336	-0.4556906200967376	0.0	1.2297621652392519	-0.47610577849867425	0.0
126	4.231578947368422	0.9529904839544973	-0.7206316935264724	0.0	0.9409335955033472	-0.7236612947571147	0.0	0.9627717134040469	-1.054130161380667	0.0	1.033443074655535	-1.086743501562789	0.0			0.0	1.625089599609375	-0.343052490234375	0.0			0.0	0.9713691462399814	-0.7278496983152667	0.0	0.9740441980519746	-1.048502396609409	0.0	1.0371201756337107	-1.0797866430647152	0.0			0.0			0.0			0.0	0.9280354019223939	-0.2570584023903848	0.0	0.9278691073079327	-0.06905954507427094	0.0	0.9717319530016084	-0.15559875306574208	0.0	0.9029439133132761	-0.30629890278410776	0.0	1.1194188935431686	-0.37446060016413013	0.0	1.3455619008680346	-0.36335736614130193	0.0	0.9361009535496652	-0.31407784991909754	0.0	1.100176416772454	-0.42132912347662593	0.0	1.241463162815571	-0.40758596613187625	0.0
127	4.265162907268171	0.9642684878067448	-0.7131814788978429	0.0	0.9573435982217071	-0.7144584612573874	0.0	0.9814854204125533	-1.0490692162550457	0.0	1.0349684332107703	-1.0862677769723854	0.0			0.0	1.625089599609375	-0.343052490234375	0.0			0.0	0.9767237438694093	-0.7194141174590577	0.0	0.9872339309325714	-1.0401147646405116	0.0	1.0388943235834518	-1.0797917750267294	0.0			0.0			0.0			0.0	0.9139151584632023	-0.2556939327186591	0.0	0.8989886948256338	-0.06790606280719882	0.0	0.9507382378876829	-0.15060584145600694	0.0	0.8973934244480285	-0.2999749812453314	0.0	1.1221637727721594	-0.33631419744772134	0.0	1.3379940737875153	-0.28606092871361277	0.0	0.9148207876007174	-0.311578848036745	0.0	1.1060460113607526	-0.39266453064788504	0.0	1.2504355748493698	-0.34301876960263755	0.0
128	4.29874686716792	0.9745789131210226	-0.7041719783162662	0.0	0.9731399732624685	-0.7032885568923452	0.0	1.0005353697280184	-1.0430697148020664	0.0	1.0382499952039332	-1.0855124054209961	0.0			0.0	1.625089599609375	-0.343052490234375	0.0			0.0	0.9811922647138689	-0.7096069907974045	0.0	1.0014434374364511	-1.0305277758954376	0.0	1.0427428767778881	-1.0798021903208488	0.0			0.0			0.0			0.0	0.9009169584389282	-0.2545384137124592	0.0	0.8721491457534528	-0.06758175426792241	0.0	0.9314562261962189	-0.14654015648505234	0.0	0.892671889997759	-0.2930361845059723	0.0	1.1204723859407304	-0.30139390888265805	0.0	1.322159268616574	-0.21944858414702886	0.0	0.89568438390548	-0.3102260163093149	0.0	1.1079837905891337	-0.3705343455315279	0.0	1.2561172697765304	-0.28583754788923305	0.0
129	4.332330827067669	0.9842472987075063	-0.6942177349443063	0.0	0.9874556634155555	-0.6912140448885383	0.0	1.0189960689255426	-1.036679712332616	0.0	1.043640957260521	-1.0845733373387263	0.0			0.0	1.625089599609375	-0.343052490234375	0.0			0.0	0.9871798294909913	-0.6992074212498349	0.0	1.0164826812701144	-1.0203066687023632	0.0	1.0491010355147765	-1.0798185998207182	0.0			0.0			0.0			0.0	0.8897813957649525	-0.253423060037666	0.0	0.8476097803481648	-0.06814066538988905	0.0	0.914292156775768	-0.1434955963525743	0.0	0.8880403546664821	-0.28618357065078226	0.0	1.115436244983016	-0.27070664572539554	0.0	1.3023669560741817	-0.16567047540464538	0.0	0.8824532168613689	-0.309430994531609	0.0	1.107305166940326	-0.3536173594059588	0.0	1.2584060875057261	-0.23908796934020943	0.0
130	4.365914786967418	0.9936101959328616	-0.6841323638448167	0.0	0.9997313131096457	-0.6793853534504967	0.0	1.03602227445965	-1.0303863122854249	0.0	1.0508736338622087	-1.0837456322078285	0.0			0.0	1.625089599609375	-0.343052490234375	0.0			0.0	0.9966991224915652	-0.6889983894005225	0.0	1.032079127790143	-1.0100459591820459	0.0	1.057508505788444	-1.0798304702591806	0.0			0.0			0.0			0.0	0.8809865103107812	-0.2525296521387256	0.0	0.8254021873163787	-0.06982565618965399	0.0	0.8993569239081683	-0.1416980662200955	0.0	0.8829455249237608	-0.2802969491662015	0.0	1.108099317069089	-0.24485728176082952	0.0	1.281998612650709	-0.12471244338990121	0.0	0.8775579975550505	-0.3087032467672466	0.0	1.1056018043951215	-0.3398752691416813	0.0	1.2577179325376462	-0.2045247002281875	0.0
131	4.3994987468671685	1.0026905921408669	-0.6747202073863988	0.0	1.0100456899634371	-0.668687749043075	0.0	1.0511886253073979	-1.0244797743395473	0.0	1.0592157807053044	-1.0834412231481432	0.0			0.0	1.625089599609375	-0.343052490234375	0.0			0.0	1.0095115701134412	-0.6796528094102834	0.0	1.0476885137186391	-1.0002422566440756	0.0	1.0665270993579996	-1.079817667796211	0.0			0.0			0.0			0.0	0.874546541280239	-0.25221646549669197	0.0	0.805280226470384	-0.07288646238518509	0.0	0.8863640310967986	-0.14122909598428335	0.0	0.8774254721174088	-0.2760328846250892	0.0	1.0995538126198505	-0.22388014840217116	0.0	1.262838918726723	-0.09480945615986361	0.0	0.8807769385697751	-0.3078758273010164	0.0	1.1036130383460374	-0.32802869996568934	0.0	1.2545354378501752	-0.1818816109795192	0.0
